# This file uses centimeters as units for non-parametric coordinates.

mtllib export.mtl
g default
v -0.500000 0.000000 1.374737
v 0.500000 0.000000 1.374737
v -0.500000 1.000000 1.374737
v 0.500000 1.000000 1.374737
v -0.500000 1.000000 -1.374737
v 0.500000 1.000000 -1.374737
v -0.500000 0.000000 -1.374737
v 0.500000 0.000000 -1.374737
v -0.500000 1.000000 0.687369
v 0.500000 1.000000 0.687369
v 0.500000 0.000000 0.687369
v -0.500000 0.000000 0.687369
v -0.500000 0.000000 -0.687369
v 0.500000 0.000000 -0.687369
v 0.500000 1.000000 -0.687369
v -0.500000 1.000000 -0.687369
v 0.379558 1.000000 -0.545142
v -0.379558 1.000000 -0.545142
v -0.379558 1.000000 0.545142
v 0.379558 1.000000 0.545142
v 0.379558 3.015205 -0.545142
v -0.379558 3.015205 -0.545142
v -0.379558 3.015205 0.545142
v 0.379558 3.015205 0.545142
v 0.379558 3.015205 -1.003917
v -0.379558 3.015205 -1.003917
v -0.379558 3.015205 1.003917
v 0.379558 3.015205 1.003917
v 0.379558 3.982466 -0.088767
v -0.379558 3.982466 -0.088767
v -0.379558 3.982466 0.088767
v 0.379558 3.982466 0.088767
vt 0.375000 0.000000
vt 0.625000 0.000000
vt 0.375000 0.250000
vt 0.625000 0.250000
vt 0.375000 0.500000
vt 0.625000 0.500000
vt 0.375000 0.750000
vt 0.625000 0.750000
vt 0.375000 1.000000
vt 0.625000 1.000000
vt 0.875000 0.000000
vt 0.875000 0.250000
vt 0.125000 0.000000
vt 0.125000 0.250000
vt 0.312500 0.250000
vt 0.375000 0.312500
vt 0.625000 0.312500
vt 0.687500 0.250000
vt 0.625000 0.937500
vt 0.687500 0.000000
vt 0.312500 0.000000
vt 0.375000 0.937500
vt 0.187500 0.000000
vt 0.375000 0.812500
vt 0.625000 0.812500
vt 0.812500 0.000000
vt 0.625000 0.437500
vt 0.812500 0.250000
vt 0.187500 0.250000
vt 0.375000 0.437500
vt 0.625000 0.437500
vt 0.375000 0.437500
vt 0.375000 0.312500
vt 0.625000 0.312500
vt 0.625000 0.437500
vt 0.375000 0.437500
vt 0.375000 0.312500
vt 0.625000 0.312500
vt 0.625000 0.437500
vt 0.375000 0.437500
vt 0.375000 0.312500
vt 0.625000 0.312500
vt 0.625000 0.437500
vt 0.375000 0.437500
vt 0.375000 0.312500
vt 0.625000 0.312500
vn 0.000000 0.000000 1.000000
vn 0.000000 0.000000 1.000000
vn 0.000000 0.000000 1.000000
vn 0.000000 0.000000 1.000000
vn 0.000000 1.000000 0.000000
vn 0.000000 1.000000 0.000000
vn 0.000000 1.000000 0.000000
vn 0.000000 1.000000 0.000000
vn 0.000000 0.000000 -1.000000
vn 0.000000 0.000000 -1.000000
vn 0.000000 0.000000 -1.000000
vn 0.000000 0.000000 -1.000000
vn 0.000000 -1.000000 0.000000
vn 0.000000 -1.000000 0.000000
vn 0.000000 -1.000000 0.000000
vn 0.000000 -1.000000 0.000000
vn 1.000000 0.000000 0.000000
vn 1.000000 0.000000 0.000000
vn 1.000000 0.000000 0.000000
vn 1.000000 0.000000 0.000000
vn -1.000000 0.000000 0.000000
vn -1.000000 0.000000 0.000000
vn -1.000000 0.000000 0.000000
vn -1.000000 0.000000 0.000000
vn 0.000000 1.000000 0.000000
vn 0.000000 1.000000 0.000000
vn 0.000000 1.000000 0.000000
vn 0.000000 1.000000 0.000000
vn 1.000000 0.000000 0.000000
vn 1.000000 0.000000 0.000000
vn 0.000000 -1.000000 0.000000
vn 0.000000 -1.000000 0.000000
vn -1.000000 0.000000 0.000000
vn -1.000000 0.000000 0.000000
vn 0.000000 -1.000000 0.000000
vn 0.000000 -1.000000 0.000000
vn 1.000000 0.000000 0.000000
vn 1.000000 0.000000 0.000000
vn 0.000000 1.000000 0.000000
vn 0.000000 1.000000 0.000000
vn 0.000000 1.000000 0.000000
vn 0.000000 1.000000 0.000000
vn -1.000000 0.000000 0.000000
vn -1.000000 0.000000 0.000000
vn 0.000000 1.000000 0.000000
vn 0.000000 1.000000 0.000000
vn 0.000000 1.000000 0.000000
vn 0.000000 1.000000 0.000000
vn 0.000000 0.000000 -1.000000
vn 0.000000 0.000000 -1.000000
vn 0.000000 0.000000 -1.000000
vn 0.000000 0.000000 -1.000000
vn -1.000000 0.000000 0.000000
vn -1.000000 0.000000 0.000000
vn -1.000000 0.000000 0.000000
vn -1.000000 0.000000 0.000000
vn 0.000000 0.000000 1.000000
vn 0.000000 0.000000 1.000000
vn 0.000000 0.000000 1.000000
vn 0.000000 0.000000 1.000000
vn 1.000000 0.000000 0.000000
vn 1.000000 0.000000 0.000000
vn 1.000000 0.000000 0.000000
vn 1.000000 0.000000 0.000000
vn 0.000000 -1.000000 0.000000
vn 0.000000 -1.000000 0.000000
vn 0.000000 -1.000000 0.000000
vn 0.000000 -1.000000 0.000000
vn 0.000000 0.000000 0.000000
vn 0.000000 0.000000 0.000000
vn 0.000000 0.000000 0.000000
vn 0.000000 0.000000 0.000000
vn 0.000000 -1.000000 0.000000
vn 0.000000 -1.000000 0.000000
vn 0.000000 -1.000000 0.000000
vn 0.000000 -1.000000 0.000000
vn 0.000000 0.000000 0.000000
vn 0.000000 0.000000 0.000000
vn 0.000000 0.000000 0.000000
vn 0.000000 0.000000 0.000000
vn 0.000000 0.687269 -0.726403
vn 0.000000 0.687269 -0.726403
vn 0.000000 0.687269 -0.726403
vn 0.000000 0.687269 -0.726403
vn -1.000000 0.000000 0.000000
vn -1.000000 0.000000 0.000000
vn -1.000000 0.000000 0.000000
vn -1.000000 0.000000 0.000000
vn 0.000000 0.687269 0.726403
vn 0.000000 0.687269 0.726403
vn 0.000000 0.687269 0.726403
vn 0.000000 0.687269 0.726403
vn 1.000000 0.000000 0.000000
vn 1.000000 0.000000 0.000000
vn 1.000000 0.000000 0.000000
vn 1.000000 0.000000 0.000000
s off
g pCube3
usemtl initialShadingGroup
f 1/1/1 2/2/2 4/4/3 3/3/4
f 29/43/5 30/44/6 31/45/7 32/46/8
f 5/5/9 6/6/10 8/8/11 7/7/12
s 1
f 12/22/13 13/24/14 14/25/15 11/19/16
s 2
f 11/20/17 14/26/18 15/28/19 10/18/20
s 3
f 16/29/21 13/23/22 12/21/23 9/15/24
s 4
f 3/3/25 4/4/26 10/17/27 9/16/28
s 2
f 2/2/29 11/20/17 10/18/20 4/4/30
s 1
f 12/22/13 11/19/16 2/10/31 1/9/32
s 3
f 9/15/24 12/21/23 1/1/33 3/3/34
s 1
f 7/7/35 8/8/36 14/25/15 13/24/14
s 2
f 15/28/19 14/26/18 8/11/37 6/12/38
s 4
f 16/30/39 15/27/40 6/6/41 5/5/42
s 3
f 7/13/43 13/23/22 16/29/21 5/14/44
s 4
f 15/27/40 16/30/39 18/32/45 17/31/46
f 16/30/39 9/16/28 19/33/47 18/32/45
f 9/16/28 10/17/27 20/34/48 19/33/47
f 10/17/27 15/27/40 17/31/46 20/34/48
s off
f 17/31/49 18/32/50 22/36/51 21/35/52
f 18/32/53 19/33/54 23/37/55 22/36/56
f 19/33/57 20/34/58 24/38/59 23/37/60
f 20/34/61 17/31/62 21/35/63 24/38/64
f 21/35/65 22/36/66 26/40/67 25/39/68
f 22/36/69 23/37/70 27/41/71 26/40/72
f 23/37/73 24/38/74 28/42/75 27/41/76
f 24/38/77 21/35/78 25/39/79 28/42/80
f 25/39/81 26/40/82 30/44/83 29/43/84
f 26/40/85 27/41/86 31/45/87 30/44/88
f 27/41/89 28/42/90 32/46/91 31/45/92
f 28/42/93 25/39/94 29/43/95 32/46/96
