# This file uses centimeters as units for non-parametric coordinates.

mtllib play.mtl
g default
v 0.055565 0.076810 0.000000
v 0.105115 0.113455 0.058155
v 0.055565 0.044846 0.062359
v 0.053278 1.307258 1.817783
v 0.105115 1.343913 1.774031
v 0.053278 1.380568 1.817783
v 0.055565 2.642980 0.062359
v 0.105115 2.574372 0.058155
v 0.055565 2.611016 0.000000
v -0.105115 1.343913 1.774031
v -0.052563 1.306753 1.817079
v -0.052563 1.381073 1.817079
v -0.055565 0.044846 0.062359
v -0.105115 0.113455 0.058155
v -0.055565 0.076810 0.000000
v -0.105115 2.574372 0.058155
v -0.053707 2.641298 0.064698
v -0.053707 2.608135 0.000000
vt 0.028566 0.028566
vt 0.028577 0.028577
vt 0.057770 0.026651
vt 0.974657 0.025343
vt 0.973350 0.942230
vt 0.971423 0.971423
vt 1.000000 0.027651
vt 1.000000 0.965379
vt 0.974657 0.025343
vt 0.033369 0.000000
vt 0.057770 0.026650
vt 0.973350 0.942230
vt 0.970351 0.970351
vt 0.972349 0.000000
vt 0.033369 0.000000
vt 0.972726 0.000000
vt 1.000000 0.027275
vt 1.000000 0.966631
vt 0.028566 0.028566
vn -0.000000 -0.889901 -0.456153
vn -0.000000 -0.889901 -0.456153
vn -0.000000 -0.889901 -0.456153
vn -0.000000 -0.889901 -0.456153
vn 0.761177 -0.000000 -0.648545
vn 0.761177 -0.000000 -0.648545
vn 0.761177 -0.000000 -0.648545
vn 0.761177 -0.000000 -0.648545
vn 0.745664 -0.540988 0.388995
vn 0.745664 -0.540988 0.388995
vn 0.745664 -0.540988 0.388995
vn 0.745664 -0.540988 0.388995
vn -0.006644 0.000000 0.999978
vn -0.006644 0.000000 0.999978
vn -0.006644 0.000000 0.999978
vn -0.006644 0.000000 0.999978
vn 0.745665 0.540987 0.388995
vn 0.745665 0.540987 0.388995
vn 0.745665 0.540987 0.388995
vn 0.745665 0.540987 0.388995
vn -0.023458 0.889658 -0.456025
vn -0.023458 0.889658 -0.456025
vn -0.023458 0.889658 -0.456025
vn -0.023458 0.889658 -0.456025
vn -0.737314 0.548601 0.394214
vn -0.737314 0.548601 0.394214
vn -0.737314 0.548601 0.394214
vn -0.737314 0.548601 0.394214
vn -0.743319 -0.543040 0.390620
vn -0.743319 -0.543040 0.390620
vn -0.743319 -0.543040 0.390620
vn -0.743319 -0.543040 0.390620
vn -0.755184 0.000281 -0.655513
vn -0.755184 0.000281 -0.655513
vn -0.755184 0.000281 -0.655513
vn -0.755184 0.000281 -0.655513
vn -1.000000 0.000000 0.000000
vn -1.000000 0.000000 0.000000
vn -1.000000 0.000000 0.000000
vn 1.000000 -0.000000 0.000000
vn 1.000000 -0.000000 0.000000
vn 1.000000 -0.000000 0.000000
vn -0.000000 -0.811861 0.583850
vn -0.000000 -0.811861 0.583850
vn -0.000000 -0.811861 0.583850
vn -0.000000 -0.811861 0.583850
vn -0.000000 0.811861 0.583850
vn -0.000000 0.811861 0.583850
vn -0.000000 0.811861 0.583850
vn -0.000000 0.811862 0.583850
vn 0.000000 0.000000 -1.000000
vn 0.000000 0.000000 -1.000000
vn 0.000000 0.000000 -1.000000
vn 0.000000 0.000000 -1.000000
vn 0.766505 -0.571529 -0.292959
vn 0.766505 -0.571529 -0.292959
vn 0.766505 -0.571529 -0.292959
vn 0.644994 -0.000000 0.764188
vn 0.644994 -0.000000 0.764188
vn 0.644994 -0.000000 0.764188
vn 0.766506 0.571529 -0.292956
vn 0.766506 0.571529 -0.292956
vn 0.766506 0.571529 -0.292956
vn -0.633692 0.000000 0.773585
vn -0.633692 0.000000 0.773585
vn -0.633692 0.000000 0.773585
vn -0.766505 -0.571529 -0.292959
vn -0.766505 -0.571529 -0.292959
vn -0.766505 -0.571529 -0.292959
vn -0.740082 0.598474 -0.306769
vn -0.740082 0.598474 -0.306769
vn -0.740082 0.598474 -0.306769
s off
g play_geo
usemtl initialShadingGroup
f 1/1/1 3/15/2 13/10/3 15/19/4
f 2/3/5 1/2/6 9/6/7 8/5/8
f 3/15/9 2/3/10 5/4/11 4/16/12
f 4/16/13 6/17/14 12/7/15 11/14/16
f 6/17/17 5/4/18 8/5/19 7/18/20
f 7/18/21 9/6/22 18/13/23 17/8/24
f 10/9/25 12/7/26 17/8/27 16/12/28
f 11/14/29 10/9/30 14/11/31 13/10/32
f 15/19/33 14/11/34 16/12/35 18/13/36
f 14/11/37 10/9/38 16/12/39
f 2/3/40 8/5/41 5/4/42
f 11/14/43 13/10/44 3/15/45 4/16/46
f 17/8/47 12/7/48 6/17/49 7/18/50
f 1/1/51 15/19/52 18/13/53 9/6/54
f 1/2/55 2/3/56 3/15/57
f 4/16/58 5/4/59 6/17/60
f 7/18/61 8/5/62 9/6/63
f 10/9/64 11/14/65 12/7/66
f 13/10/67 14/11/68 15/19/69
f 16/12/70 17/8/71 18/13/72
